<?xml version="1.0" encoding="UTF-8"?><svg id="Layer_2" xmlns="http://www.w3.org/2000/svg" viewBox="0 0 490.55 124.74"><defs><style>.cls-1{fill:#8091e6;opacity:.5;}.cls-2{fill:#8ab7ff;}.cls-3{fill:#0059ff;}</style></defs><g id="Layer_1-2"><g><g><path class="cls-2" d="M401.78,107.29c11.21,10.79,26.42,17.45,43.21,17.45,18,0,34.17-7.67,45.56-19.87l-43.18-43.18-45.59,45.59Z"/><path class="cls-2" d="M444.99,0c-16.45,0-31.36,6.41-42.51,16.82l44.89,44.89,42.54-42.54c-11.35-11.79-27.26-19.16-44.92-19.16Z"/><path class="cls-3" d="M402.49,16.82c-12.2,11.38-19.87,27.56-19.87,45.56s7.37,33.57,19.16,44.92l45.59-45.59-44.89-44.89Z"/></g><g><polygon class="cls-3" points="265.54 36.4 265.54 .02 190.21 .02 142.83 .02 142.83 36.4 142.83 50.26 142.83 86.04 142.83 124.1 190.21 124.1 190.21 86.04 237.59 86.04 237.59 50.26 190.21 50.26 190.21 36.4 265.54 36.4"/><g><rect class="cls-2" x="142.83" y="86.04" width="47.38" height="38.05"/><rect class="cls-2" x="142.83" y="36.4" width="47.38" height="13.86"/><rect class="cls-2" x="190.21" y=".02" width="75.33" height="36.38"/><rect class="cls-2" x="190.21" y="50.26" width="47.38" height="35.79"/></g></g><g><g><path class="cls-2" d="M122.75,.43H41.53C18.65,.43,.1,18.93,0,41.79H81.23c22.88,0,41.43,18.5,41.52,41.36h0V.43Z"/><path class="cls-1" d="M0,41.95c0-.06,0-.11,0-.17H0v.17Z"/><path class="cls-2" d="M0,41.95V124.5H81.56c22.75,0,41.19-18.44,41.19-41.19h0c0-.06,0-.11,0-.17H41.2C18.45,83.14,0,64.7,0,41.95Z"/></g><path class="cls-3" d="M41.19,83.14H122.74c-.09-22.86-18.64-41.36-41.52-41.36H0c0,.06,0,.11,0,.17H0c0,22.75,18.44,41.19,41.19,41.19Z"/></g><g><polygon class="cls-2" points="251.4 124.1 313.09 124.1 313.09 .02 251.4 124.1"/><polygon class="cls-3" points="313.09 124.1 374.79 124.1 313.09 .02 313.09 124.1"/></g></g></g></svg>